<?xml version="1.0" encoding="UTF-8" standalone="no"?>
<svg
   width="63mm"
   height="88mm"
   viewBox="0 0 63.000006 87.999876"
   version="1.1"
   id="svg3"
   sodipodi:docname="secret-asset.svg"
   inkscape:version="1.4.4 (1:1.4.4+202605061436+dcaf3e7d9e)"
   xmlns:inkscape="http://www.inkscape.org/namespaces/inkscape"
   xmlns:sodipodi="http://sodipodi.sourceforge.net/DTD/sodipodi-0.dtd"
   xmlns="http://www.w3.org/2000/svg"
   xmlns:svg="http://www.w3.org/2000/svg">
  <defs
     id="defs3" />
  <sodipodi:namedview
     id="namedview3"
     pagecolor="#ffffff"
     bordercolor="#000000"
     borderopacity="0.25"
     inkscape:showpageshadow="2"
     inkscape:pageopacity="0.0"
     inkscape:pagecheckerboard="0"
     inkscape:deskcolor="#d1d1d1"
     showgrid="false"
     inkscape:zoom="2.8284271"
     inkscape:cx="68.235805"
     inkscape:cy="112.78353"
     inkscape:window-width="2560"
     inkscape:window-height="1011"
     inkscape:window-x="0"
     inkscape:window-y="32"
     inkscape:window-maximized="1"
     inkscape:current-layer="svg3"
     inkscape:document-units="mm" />
  <path
     id="rect1"
     style="fill:#3c3834;stroke-width:0.303815;fill-opacity:1"
     d="M 0 -6.6639056e-05 L 0 30.867304 C 4.5715256 26.893838 16.167227 22.368678 26.281603 24.486814 C 28.685468 26.084222 30.568735 26.863432 31.49989 26.292905 C 32.431045 26.863432 34.314313 26.084221 36.718177 24.486814 C 46.832553 22.368678 58.428254 26.893838 62.99978 30.867304 L 62.99978 -6.6639056e-05 L 0 -6.6639056e-05 z " />
  <path
     id="rect2"
     style="fill:#2b2721;fill-opacity:1;stroke-width:0.271339"
     d="M 7.2323846,-6.6581821e-5 C 6.7408692,9.1677351 7.1124388,14.125222 11.762582,19.345714 16.58204,23.915832 23.971472,27.68448 31.4998,28.869607 39.028265,27.684491 46.418171,23.915793 51.237716,19.345714 55.88795,14.125269 56.25944,9.1676544 55.767915,-6.6581821e-5 H 31.4998 Z" />
  <path
     id="path2"
     style="fill:#645c56;fill-opacity:1;stroke-width:0.256468"
     d="m 8.1219451,1.1288642 c -0.4735043,8.5019837 -0.00852,13.1363488 4.3633169,17.9409048 4.755359,4.332028 11.762072,7.733083 19.014538,8.83214 7.252597,-1.099047 14.259094,-4.50078 19.014538,-8.83277 4.371988,-4.804513 4.837529,-9.4383152 4.364015,-17.940224 H 31.4998 Z"
     sodipodi:nodetypes="ccccccc" />
  <path
     id="path3"
     style="fill:#37322e;fill-opacity:1;stroke-width:0.243945"
     d="M 8.7390207,1.1288642 C 8.2780118,9.029323 8.6868183,14.334459 12.987724,18.765697 c 4.140684,4.296184 11.45102,7.585258 18.512067,8.606558 7.061173,-1.02129 14.372023,-4.310411 18.51278,-8.606558 4.30099,-4.431198 4.709723,-9.7364437 4.248706,-17.6368328 z"
     sodipodi:nodetypes="cccccc" />
</svg>
