<svg xmlns="http://www.w3.org/2000/svg" width="512pt" height="512pt" viewBox="0 0 512 512"><path fill-rule="evenodd" d="m455.86 222.94-45.18-6.219a157.9 157.9 0 0 0-17.52-42.28l27.578-36.38c1.719-2.261 1.46-5.46-.54-7.46l-38.78-38.782c-2-2.02-5.18-2.219-7.441-.52l-36.398 27.579a159.2 159.2 0 0 0-42.281-17.54l-6.22-45.218c-.398-2.82-2.82-4.922-5.64-4.922h-54.883c-2.82 0-5.219 2.101-5.64 4.922l-6.22 45.219c-14.878 3.761-29.058 9.66-42.28 17.539L138.017 91.3c-2.239-1.719-5.442-1.5-7.442.52l-38.78 38.78a5.68 5.68 0 0 0-.54 7.461l27.578 36.398c-7.879 13.22-13.762 27.398-17.52 42.281l-45.238 6.219c-2.78.379-4.898 2.8-4.898 5.64v54.84c0 2.84 2.121 5.239 4.898 5.641l45.238 6.219a157.9 157.9 0 0 0 17.52 42.281l-27.578 36.398a5.637 5.637 0 0 0 .54 7.46l38.78 38.782c2 2.02 5.18 2.238 7.442.52l36.398-27.579a158.7 158.7 0 0 0 42.28 17.54l6.22 45.198c.398 2.82 2.82 4.922 5.64 4.922h54.883c2.82 0 5.219-2.101 5.64-4.922l6.22-45.219a158.2 158.2 0 0 0 42.28-17.52l36.399 27.578c2.238 1.72 5.44 1.5 7.44-.52l38.782-38.78c2-2.02 2.238-5.2.539-7.461l-27.578-36.398a158 158 0 0 0 17.52-42.281l45.18-6.219c2.82-.398 4.941-2.8 4.941-5.64v-54.84c0-2.84-2.12-5.239-4.941-5.641zM255.98 345.12c-49.16 0-89.098-39.98-89.098-89.117 0-49.16 39.961-89.117 89.098-89.117s89.141 39.98 89.141 89.117c0 49.141-40 89.117-89.141 89.117"/></svg>