<svg xmlns="http://www.w3.org/2000/svg" width="1600" height="1600" viewBox="0 0 1200 1200"><path d="m361.45 737.48-94.125 163.03c-6.562 11.438-21.188 15.375-32.625 8.813-6.422-3.657-10.453-9.844-11.625-16.594l-17.297-97.267-92.859 33.75c-12.422 4.5-26.156-1.921-30.656-14.344-2.625-7.218-1.547-14.953 2.297-21l75.703-131.11c-39.328-19.78-77.672-42.328-114.66-67.734-10.922-7.453-13.734-22.359-6.281-33.28s22.359-13.735 33.28-6.282c158.86 108.94 343.13 163.45 527.39 163.45s368.53-54.516 527.39-163.45c10.923-7.453 25.829-4.64 33.282 6.281 7.453 10.922 4.64 25.828-6.281 33.281-37.031 25.36-75.328 47.953-114.66 67.734l75.703 131.11a23.89 23.89 0 0 1 2.296 21c-4.5 12.422-18.234 18.844-30.656 14.344l-92.859-33.75-17.203 97.267c-1.265 6.75-5.343 12.937-11.719 16.593-11.438 6.563-26.062 2.625-32.625-8.812l-94.125-163.03c-43.734 10.969-88.078 18.844-132.66 23.719v169.87c0 13.266-10.734 24-24 24-7.875 0-14.859-3.797-19.219-9.656l-62.625-74.578-63.516 75.656c-8.484 10.125-23.625 11.484-33.75 3-5.671-4.735-8.578-11.531-8.578-18.375l-.047-169.87c-44.625-4.875-88.922-12.75-132.66-23.72zm327.94-281.11-67.078 174.66a23.78 23.78 0 0 1-13.781 13.781c-12.328 4.734-26.156-1.453-30.844-13.781l-67.078-174.66c-59.672-5.484-118.92-16.406-177-32.812l-120.52 165.79c-3.89 5.344-9.89 9.047-16.969 9.75-13.125 1.313-24.891-8.25-26.25-21.375l-24.141-228.89a975 975 0 0 1-100.17-60.281c-10.922-7.453-13.734-22.359-6.281-33.281s22.359-13.734 33.28-6.281c158.86 108.94 343.13 163.45 527.39 163.45s368.53-54.516 527.39-163.45c10.923-7.453 25.829-4.64 33.282 6.281 7.453 10.922 4.64 25.828-6.281 33.281-32.438 22.266-65.906 42.328-100.17 60.281l-24.141 228.89c-1.313 13.125-13.125 22.734-26.25 21.375-7.079-.703-13.078-4.406-16.922-9.75l-120.52-165.79a983 983 0 0 1-177 32.812z"/></svg>